<svg width="30" height="30" viewBox="0 0 30 30" fill="none" xmlns="http://www.w3.org/2000/svg">
<g clip-path="url(#clip0_947_5310)">
<path d="M30 14.9999C30 15.6899 29.4412 16.2499 28.75 16.2499H25.6675C25.1025 16.2499 24.6063 16.6312 24.46 17.1749L22.3638 24.9774C22.125 25.7587 21.4575 26.2499 20.6875 26.2499H20.6663C19.8875 26.2412 19.2225 25.7312 19.0112 24.9824L14.9188 8.44992L10.9462 22.4987C10.7075 23.2449 10.0838 23.7187 9.34625 23.7474C8.58125 23.7887 7.9475 23.3537 7.665 22.6699L5.665 17.0774C5.48625 16.5824 5.01375 16.2487 4.4875 16.2487H1.25C0.55875 16.2487 0 15.6887 0 14.9987C0 14.3087 0.55875 13.7487 1.25 13.7487H4.48875C6.06875 13.7487 7.48625 14.7474 8.02 16.2349L9.1925 19.5174L13.2975 4.99867C13.5487 4.21742 14.2062 3.71492 14.9987 3.74867C15.7712 3.76242 16.4313 4.27117 16.6425 5.01367L20.7162 21.4712L22.0438 16.5262C22.4825 14.8912 23.9712 13.7487 25.665 13.7487H28.7475C29.4387 13.7487 29.9975 14.3087 29.9975 14.9987L30 14.9999Z" fill="#F9F9F9"/>
</g>
<defs>
<clipPath id="clip0_947_5310">
<rect width="30" height="30" fill="white"/>
</clipPath>
</defs>
</svg>
