<svg width="20" height="24" viewBox="0 0 20 24" fill="none" xmlns="http://www.w3.org/2000/svg">
<path d="M17.944 2.633L10 0L2.056 2.633C1.45747 2.83142 0.936683 3.21338 0.567602 3.72463C0.198521 4.23589 -8.26355e-05 4.85044 2.5793e-08 5.481V11.991C2.5793e-08 19.515 9.2 23.67 9.594 23.843L9.948 24L10.316 23.878C10.712 23.746 20 20.568 20 11.991V5.481C20.0001 4.85044 19.8015 4.23589 19.4324 3.72463C19.0633 3.21338 18.5425 2.83142 17.944 2.633ZM14 12.991H11V15.991H9V12.991H6V10.991H9V7.991H11V10.991H14V12.991Z" fill="black"/>
</svg>
