<svg width="80" height="80" viewBox="0 0 80 80" fill="none" xmlns="http://www.w3.org/2000/svg">
<g clip-path="url(#clip0_980_3955)">
<path d="M74.9503 36.5834L40.0003 57.5568L5.05032 36.5834C4.29225 36.1286 3.38453 35.9935 2.52687 36.2079C1.6692 36.4224 0.931837 36.9687 0.476991 37.7268C0.0221444 38.4848 -0.112928 39.3926 0.101489 40.2502C0.315906 41.1079 0.862247 41.8453 1.62032 42.3001L38.287 64.3001C38.8054 64.6116 39.3989 64.7761 40.0037 64.7761C40.6085 64.7761 41.2019 64.6116 41.7203 64.3001L78.387 42.3001C79.1451 41.8453 79.6914 41.1079 79.9058 40.2502C80.1203 39.3926 79.9852 38.4848 79.5303 37.7268C79.0755 36.9687 78.3381 36.4224 77.4805 36.2079C76.6228 35.9935 75.7151 36.1286 74.957 36.5834H74.9503Z" fill="#F9F9F9"/>
<path d="M74.9503 51.81L40.0003 72.78L5.05031 51.81C4.67495 51.5848 4.25891 51.4357 3.82593 51.3713C3.39296 51.3068 2.95153 51.3283 2.52686 51.4345C2.10218 51.5407 1.70258 51.7294 1.35086 51.99C0.999142 52.2506 0.702198 52.578 0.476981 52.9533C0.251764 53.3287 0.102685 53.7447 0.0382563 54.1777C-0.0261724 54.6107 -0.00468929 55.0521 0.101479 55.4768C0.315896 56.3345 0.862237 57.0718 1.62031 57.5267L38.287 79.5267C38.8054 79.8381 39.3988 80.0027 40.0037 80.0027C40.6085 80.0027 41.2019 79.8381 41.7203 79.5267L78.387 57.5267C79.1451 57.0718 79.6914 56.3345 79.9058 55.4768C80.1202 54.6191 79.9852 53.7114 79.5303 52.9533C79.0755 52.1953 78.3381 51.6489 77.4804 51.4345C76.6228 51.2201 75.7151 51.3552 74.957 51.81H74.9503Z" fill="#F9F9F9"/>
<path d="M1.61659 27.8567L34.8966 47.8267C36.4375 48.7536 38.2017 49.2434 39.9999 49.2434C41.7981 49.2434 43.5624 48.7536 45.1033 47.8267L78.3833 27.8567C78.8761 27.5603 79.2839 27.1415 79.567 26.641C79.8501 26.1404 79.9989 25.5751 79.9989 25C79.9989 24.4249 79.8501 23.8597 79.567 23.3591C79.2839 22.8585 78.8761 22.4397 78.3833 22.1434L45.1033 2.17336C43.562 1.24745 41.7979 0.758301 39.9999 0.758301C38.2019 0.758301 36.4378 1.24745 34.8966 2.17336L1.61659 22.1434C1.12375 22.4397 0.715958 22.8585 0.432858 23.3591C0.149757 23.8597 0.000976563 24.4249 0.000976562 25C0.000976563 25.5751 0.149757 26.1404 0.432858 26.641C0.715958 27.1415 1.12375 27.5603 1.61659 27.8567Z" fill="#F9F9F9"/>
</g>
<defs>
<clipPath id="clip0_980_3955">
<rect width="80" height="80" fill="white"/>
</clipPath>
</defs>
</svg>
