<svg width="30" height="30" viewBox="0 0 30 30" fill="none" xmlns="http://www.w3.org/2000/svg">
<path d="M10.1663 24.0799C10.365 26.5024 11.2325 28.7499 15.0113 28.7499C18.79 28.7499 19.66 26.4974 19.8588 24.0699C18.4025 24.2962 16.795 24.4074 14.9938 24.4074C13.2063 24.4074 11.61 24.2987 10.1663 24.0799Z" fill="#0A121F"/>
<path d="M15.0125 4.45251C8.18375 4.45251 4.1075 8.54626 4.1075 15.4038C4.1075 21.3625 7.675 23.7638 9.80125 24.6638C9.82375 24.6738 10.9762 25.005 13.7862 25.09V18.1675C13.0437 17.9063 12.3087 17.4063 11.5637 16.6575C11.0762 16.1688 11.0787 15.3775 11.5675 14.89C12.0575 14.4013 12.8475 14.4038 13.3362 14.8938C14.6237 16.1875 15.3462 16.2488 16.6925 14.8938C17.1825 14.405 17.9712 14.4025 18.4612 14.89C18.95 15.3775 18.9525 16.1688 18.465 16.6575C17.9437 17.18 17.2125 17.825 16.2875 18.1588V25.0875C19.3062 24.9388 20.2075 24.6638 20.225 24.6563C22.3412 23.755 25.8937 21.3538 25.8937 15.4038C25.8937 8.44501 21.9262 4.45251 15.0125 4.45251Z" fill="#0A121F"/>
</svg>
