<svg width="18" height="17" viewBox="0 0 18 17" fill="none" xmlns="http://www.w3.org/2000/svg">
<path d="M8.724 0C3.261 0 0 3.275 0 8.761C0 13.528 2.854 15.449 4.555 16.169C4.573 16.177 5.495 16.442 7.743 16.51V10.972C7.149 10.763 6.561 10.363 5.965 9.764C5.575 9.373 5.577 8.74 5.968 8.35C6.36 7.959 6.992 7.961 7.383 8.353C8.413 9.388 8.991 9.437 10.068 8.353C10.46 7.962 11.091 7.96 11.483 8.35C11.874 8.74 11.876 9.373 11.486 9.764C11.069 10.182 10.484 10.698 9.744 10.965V16.508C12.159 16.389 12.88 16.169 12.894 16.163C14.587 15.442 17.429 13.521 17.429 8.761C17.429 3.194 14.255 0 8.724 0Z" fill="black"/>
</svg>
