<svg width="24" height="22" viewBox="0 0 24 22" fill="none" xmlns="http://www.w3.org/2000/svg">
<path d="M21 0H3C1.346 0 0 1.346 0 3V20H11.5V17.967C10.758 17.129 10.276 16.103 10.091 15H5V13H10.09C10.09 13 10.09 13.004 10.09 13.006C10.214 12.266 10.473 11.623 10.843 11C10.833 11.017 5.001 11 5.001 11V9H12.687C12.68 9.004 12.675 9.01 12.668 9.014C13.622 8.374 14.768 8 16.001 8C19.31 8 22.001 10.691 22.001 14C22.001 15.48 21.464 16.88 20.501 17.967V20H24.001V3C24.001 1.346 22.654 0 21 0ZM19 7H5V5H19V7ZM13.5 22V17.12C12.586 16.386 12 15.261 12 14C12 11.794 13.794 10 16 10C18.206 10 20 11.794 20 14C20 15.261 19.414 16.386 18.5 17.12V22L16 19.5L13.5 22Z" fill="black"/>
</svg>
