<svg width="30" height="30" viewBox="0 0 30 30" fill="none" xmlns="http://www.w3.org/2000/svg">
<path d="M22.24 9.01501C21.6846 6.62662 20.2709 4.52557 18.2677 3.11124C16.2645 1.69692 13.8115 1.06791 11.375 1.34378C8.93839 1.61966 6.68811 2.78118 5.05187 4.60757C3.41562 6.43395 2.50747 8.79788 2.50004 11.25C2.49896 12.848 2.88497 14.4225 3.62504 15.8388C2.27645 16.5614 1.20804 17.7141 0.589566 19.1135C-0.0289094 20.513 -0.161976 22.0789 0.211507 23.5627C0.584991 25.0464 1.4436 26.3628 2.65092 27.3026C3.85824 28.2425 5.34503 28.7519 6.87504 28.75H20C22.4489 28.7386 24.8085 27.8291 26.6313 26.1938C28.4542 24.5585 29.6137 22.3112 29.8898 19.8779C30.166 17.4447 29.5397 14.9946 28.1297 12.9924C26.7197 10.9902 24.6241 9.57493 22.24 9.01501Z" fill="#0A121F"/>
</svg>
