<svg width="24" height="24" viewBox="0 0 24 24" fill="none" xmlns="http://www.w3.org/2000/svg">
<path d="M14.27 6.48C13.457 7.293 13 8.395 13 9.545V11H14.455C15.605 11 16.707 10.543 17.52 9.73L23.327 3.923C24.224 3.026 24.224 1.57 23.327 0.673C22.43 -0.224 20.974 -0.224 20.077 0.673L14.27 6.48ZM3 1.5V5H2.5C1.119 5 0 3.881 0 2.5V1.5C0 0.672 0.672 0 1.5 0C2.328 0 3 0.672 3 1.5ZM23.992 21.168C23.978 21.324 23.962 21.443 23.945 21.5C23.515 22.946 22.175 24 20.59 24H11.24C11.72 23.284 12 22.424 12 21.5C12 20.119 13.119 19 14.5 19H21.998C23.168 19 24.097 20.003 23.991 21.168H23.992ZM20 10.078V17H14.501C12.013 17 10.004 19.017 10 21.505C9.997 22.985 8.708 24.164 7.19 23.982C5.911 23.828 5 22.647 5 21.358V1.5C5 0.964 4.878 0.455 4.662 0H16C16.566 0 17.102 0.12 17.59 0.332L12.856 5.066C11.66 6.262 11.001 7.853 11.001 9.545V13H14.456C16.147 13 17.738 12.341 18.935 11.145L20.001 10.079L20 10.078Z" fill="black"/>
</svg>
