<svg width="30" height="30" viewBox="0 0 30 30" fill="none" xmlns="http://www.w3.org/2000/svg">
<path d="M28.9013 7.68875L22.3113 1.09875C21.6025 0.39 20.6612 0 19.66 0H10.34C9.33875 0 8.3975 0.39 7.68875 1.09875L1.09875 7.68875C0.39 8.3975 0 9.33875 0 10.34V19.66C0 20.6612 0.39 21.6025 1.09875 22.3113L7.68875 28.9013C8.3975 29.61 9.33875 30 10.34 30H19.66C20.6612 30 21.6025 29.61 22.3113 28.9013L28.9013 22.3113C29.61 21.6025 30 20.6612 30 19.66V10.34C30 9.33875 29.61 8.3975 28.9013 7.68875ZM15.3412 18.615C14.8512 19.105 14.1988 19.375 13.5063 19.375C12.8138 19.375 12.1612 19.105 11.6712 18.6137L7.15375 14.0963L8.92125 12.3287L13.44 16.8463C13.4712 16.8775 13.5425 16.8763 13.575 16.8463L21.1488 9.2725L22.9163 11.04L15.3425 18.6137L15.3412 18.615Z" fill="#F9F9F9"/>
</svg>
