<svg width="24" height="24" viewBox="0 0 24 24" fill="none" xmlns="http://www.w3.org/2000/svg">
<path d="M17.5 11C13.91 11 11 13.91 11 17.5C11 21.09 13.91 24 17.5 24C21.09 24 24 21.09 24 17.5C24 13.91 21.09 11 17.5 11ZM20 20H14.5C13.672 20 13 19.328 13 18.5C13 17.672 13.672 17 14.5 17C14.509 17 14.517 17.002 14.525 17.003C14.517 16.919 14.5 16.837 14.5 16.75C14.5 15.231 15.731 14 17.25 14C18.511 14 19.563 14.854 19.887 16.011C19.925 16.009 19.961 16 20 16C21.105 16 22 16.895 22 18C22 19.105 21.105 20 20 20ZM0 4.5C0 2.015 3.806 0 8.5 0C13.194 0 17 2.015 17 4.5C17 6.985 13.194 9 8.5 9C3.806 9 0 6.985 0 4.5ZM0 15.566V13.826C1.876 15.16 4.92 16 8.5 16C8.719 16 8.929 15.987 9.143 15.981C9.054 16.475 9 16.981 9 17.5C9 18.008 9.053 18.502 9.138 18.985C8.927 18.992 8.716 19 8.5 19C3.635 19 0 17.188 0 15.566ZM11.709 23.71C10.685 23.901 9.591 24 8.5 24C4.276 24 0 22.553 0 19.786V18.826C1.876 20.16 4.92 21 8.5 21C8.922 21 9.336 20.986 9.743 20.963C10.211 22.008 10.884 22.939 11.71 23.71H11.709ZM0 10.567V8.4C1.876 9.996 4.92 11 8.5 11C10.019 11 11.432 10.81 12.71 10.48C11.444 11.345 10.431 12.547 9.783 13.952C9.365 13.98 8.94 14 8.5 14C3.635 14 0 12.188 0 10.567Z" fill="black"/>
</svg>
