<svg width="30" height="30" viewBox="0 0 30 30" fill="none" xmlns="http://www.w3.org/2000/svg">
<path d="M29.9126 16.6799L28.3113 11.7486L25.1351 1.96863C24.9626 1.45863 24.5051 1.12988 23.9676 1.12988C23.9651 1.12988 23.9626 1.12988 23.9601 1.12988C23.4226 1.13238 22.9676 1.46488 22.8013 1.97488L19.7801 11.2774H10.2251L7.19884 1.97613C7.03259 1.46613 6.57759 1.13363 6.03884 1.13113C6.03634 1.13113 6.03384 1.13113 6.03134 1.13113C5.49384 1.13113 5.03634 1.45988 4.86134 1.97738L1.69259 11.7511L0.0875936 16.6799C-0.149906 17.4124 0.107594 18.2086 0.730094 18.6611L14.5988 28.7374C14.7351 28.8361 14.9101 28.8824 15.0776 28.8624C15.1913 28.8486 15.3051 28.8049 15.4001 28.7374L29.2713 18.6611C29.8926 18.2099 30.1501 17.4136 29.9126 16.6799ZM26.2701 12.6411L16.8426 24.7199L20.7688 12.6411H26.2701ZM15.0001 25.9849L14.6588 24.9324L10.6688 12.6411H19.3388L15.0001 25.9849ZM9.23634 12.6411L13.1576 24.7199L3.73634 12.6411H9.23634ZM23.9701 2.78863L26.7276 11.2799H21.2113L23.9701 2.78863ZM6.03134 2.78863L8.79384 11.2799H3.27759L6.03134 2.78863ZM1.53134 17.5611C1.38759 17.4561 1.32759 17.2711 1.38259 17.1011L2.59259 13.3886L4.35384 15.6461L11.4926 24.7974L1.53134 17.5611ZM28.4701 17.5611L18.5101 24.7961L21.3351 21.1761L27.4126 13.3886L28.6176 17.0999C28.6726 17.2711 28.6138 17.4561 28.4701 17.5611Z" fill="#0A121F"/>
</svg>
