<svg width="24" height="24" viewBox="0 0 24 24" fill="none" xmlns="http://www.w3.org/2000/svg">
<path d="M12 9.828L7.086 4.914L12 0L16.914 4.914L12 9.828ZM13.017 15.401C13.643 15.97 14 16.776 14 17.622V23.914H4.164L1.047 20.502C0.374 19.765 0 18.803 0 17.804V5.414C0 3.948 1.261 2.777 2.758 2.927C4.059 3.057 5 4.249 5 5.557V9.511C5 9.511 4.24 10.127 4.093 10.289C2.693 11.831 2.638 14.204 3.968 15.808L7.405 19.28L8.809 17.876L5.566 14.601C4.963 13.873 4.814 12.829 5.294 12.015C6.033 10.761 7.684 10.558 8.701 11.482L13.018 15.402L13.017 15.401ZM18.708 12.015C17.969 10.761 16.318 10.558 15.301 11.482L13.488 13.128L14.362 13.922C15.28 14.756 15.827 15.909 15.949 17.134L18.436 14.602C19.039 13.874 19.188 12.83 18.708 12.016V12.015ZM21.501 2.914C20.12 2.914 19.001 4.033 19.001 5.414V9.51C19.001 9.51 19.761 10.126 19.908 10.288C21.308 11.83 21.363 14.203 20.033 15.807L16 19.895V23.914H19.836L22.953 20.502C23.626 19.765 24 18.803 24 17.804V5.414C24 4.033 22.882 2.914 21.501 2.914Z" fill="black"/>
</svg>
