<svg width="24" height="24" viewBox="0 0 24 24" fill="none" xmlns="http://www.w3.org/2000/svg">
<path d="M18.501 13.494C18.277 13.504 18.048 13.392 17.853 13.288C16.714 12.719 13 10.584 13 7.016V3.83C13 2.535 13.826 1.39 15.056 0.982L17.556 0.153C18.173 -0.051 18.827 -0.051 19.444 0.153L21.945 0.983C23.174 1.391 24.001 2.535 24.001 3.831V7.017C24.001 11.049 20.237 12.875 19.084 13.339C18.906 13.413 18.696 13.504 18.502 13.495L18.501 13.494ZM21.5 19C22.881 19 24 20.119 24 21.5C24 22.881 22.881 24 21.5 24H2.5C1.119 24 0 22.881 0 21.5C0 20.119 1.119 19 2.5 19H8.151C8.74 19 9.298 19.259 9.678 19.708L9.925 20H14.074L14.321 19.708C14.701 19.259 15.259 19 15.848 19H21.5ZM19.829 15.193C19.576 15.299 19.07 15.485 18.503 15.494H18.474C17.738 15.494 17.162 15.186 16.91 15.051C15.561 14.377 11.001 11.731 11.001 7.015V5.999H7.001C4.244 5.999 2.001 8.242 2.001 10.999V17.109C2.324 17.042 2.657 16.999 3.001 16.999H8.152C9.135 16.999 10.072 17.358 10.798 17.999H13.202C13.928 17.358 14.866 16.999 15.848 16.999H20.999C21.343 16.999 21.676 17.042 21.999 17.109V14.034C21.113 14.629 20.298 15.004 19.828 15.192L19.829 15.193Z" fill="black"/>
</svg>
