<svg width="25" height="30" viewBox="0 0 25 30" fill="none" xmlns="http://www.w3.org/2000/svg">
<path d="M15 8.75V0.575C16.1563 1.01167 17.2066 1.68914 18.0813 2.5625L22.4362 6.92C23.3106 7.7936 23.9886 8.84362 24.425 10H16.25C15.9185 10 15.6005 9.8683 15.3661 9.63388C15.1317 9.39946 15 9.08152 15 8.75ZM25 13.1062V23.75C24.998 25.407 24.3389 26.9956 23.1672 28.1672C21.9956 29.3389 20.407 29.998 18.75 30H6.25C4.59301 29.998 3.00445 29.3389 1.83277 28.1672C0.661102 26.9956 0.00198482 25.407 0 23.75V6.25C0.00198482 4.59301 0.661102 3.00445 1.83277 1.83277C3.00445 0.661102 4.59301 0.00198482 6.25 0L11.8938 0C12.0975 0 12.2988 0.01625 12.5 0.03V8.75C12.5 9.74456 12.8951 10.6984 13.5983 11.4017C14.3016 12.1049 15.2554 12.5 16.25 12.5H24.97C24.9837 12.7012 25 12.9025 25 13.1062ZM15 23.75C15 23.4185 14.8683 23.1005 14.6339 22.8661C14.3995 22.6317 14.0815 22.5 13.75 22.5H7.5C7.16848 22.5 6.85054 22.6317 6.61612 22.8661C6.3817 23.1005 6.25 23.4185 6.25 23.75C6.25 24.0815 6.3817 24.3995 6.61612 24.6339C6.85054 24.8683 7.16848 25 7.5 25H13.75C14.0815 25 14.3995 24.8683 14.6339 24.6339C14.8683 24.3995 15 24.0815 15 23.75ZM18.75 18.75C18.75 18.4185 18.6183 18.1005 18.3839 17.8661C18.1495 17.6317 17.8315 17.5 17.5 17.5H7.5C7.16848 17.5 6.85054 17.6317 6.61612 17.8661C6.3817 18.1005 6.25 18.4185 6.25 18.75C6.25 19.0815 6.3817 19.3995 6.61612 19.6339C6.85054 19.8683 7.16848 20 7.5 20H17.5C17.8315 20 18.1495 19.8683 18.3839 19.6339C18.6183 19.3995 18.75 19.0815 18.75 18.75Z" fill="#0A121F"/>
</svg>
