<svg width="30" height="30" viewBox="0 0 30 30" fill="none" xmlns="http://www.w3.org/2000/svg">
<g clip-path="url(#clip0_975_3486)">
<path d="M14.0501 30.0001C13.6406 29.9986 13.2363 29.9082 12.8651 29.7351C12.2589 29.4651 11.772 28.9832 11.4958 28.3797C11.2197 27.7763 11.1732 27.0928 11.3651 26.4576L13.3164 20.0001H8.71888C8.13313 20.0008 7.55537 19.8643 7.03188 19.6015C6.5084 19.3387 6.05376 18.9569 5.7044 18.4867C5.35503 18.0166 5.12066 17.4711 5.02007 16.8941C4.91948 16.317 4.95546 15.7244 5.12513 15.1638L8.90513 2.66381C9.13554 1.89066 9.61049 1.21309 10.2587 0.7328C10.9069 0.252507 11.6934 -0.00460204 12.5001 6.23617e-05H17.1164C17.6411 0.00050129 18.1579 0.12797 18.6226 0.371574C19.0873 0.615179 19.4861 0.967677 19.785 1.39894C20.0838 1.83021 20.2738 2.32742 20.3387 2.84808C20.4036 3.36875 20.3415 3.89738 20.1576 4.38881L18.0539 10.0001H21.2501C21.9314 10 22.5999 10.1856 23.1837 10.5368C23.7675 10.8881 24.2446 11.3917 24.5637 11.9937C24.8828 12.5957 25.0319 13.2732 24.9949 13.9535C24.9579 14.6338 24.7363 15.2912 24.3539 15.8551L16.3539 28.7301C16.1066 29.1174 15.7661 29.4365 15.3637 29.6584C14.9613 29.8802 14.5097 29.9977 14.0501 30.0001Z" fill="#F9F9F9"/>
</g>
<defs>
<clipPath id="clip0_975_3486">
<rect width="30" height="30" fill="white"/>
</clipPath>
</defs>
</svg>
