<svg width="32" height="24" viewBox="0 0 32 24" fill="none" xmlns="http://www.w3.org/2000/svg">
<rect width="32" height="24" rx="10" fill="#F9F9F9"/>
<path d="M22 11.9999C21.9951 11.4738 21.7832 10.9708 21.41 10.5999L17.12 6.29995C16.9326 6.1137 16.6792 6.00916 16.415 6.00916C16.1508 6.00916 15.8974 6.1137 15.71 6.29995C15.6163 6.39291 15.5419 6.50351 15.4911 6.62537C15.4403 6.74723 15.4142 6.87794 15.4142 7.00995C15.4142 7.14196 15.4403 7.27267 15.4911 7.39452C15.5419 7.51638 15.6163 7.62698 15.71 7.71995L19 10.9999H9C8.73478 10.9999 8.48043 11.1053 8.29289 11.2928C8.10536 11.4804 8 11.7347 8 11.9999C8 12.2652 8.10536 12.5195 8.29289 12.7071C8.48043 12.8946 8.73478 12.9999 9 12.9999H19L15.71 16.2899C15.5217 16.4769 15.4154 16.731 15.4144 16.9964C15.4135 17.2618 15.518 17.5166 15.705 17.7049C15.892 17.8933 16.1461 17.9996 16.4115 18.0005C16.6768 18.0014 16.9317 17.8969 17.12 17.7099L21.41 13.4099C21.7856 13.0366 21.9978 12.5295 22 11.9999Z" fill="#D7263D"/>
</svg>
