<svg width="30" height="30" viewBox="0 0 30 30" fill="none" xmlns="http://www.w3.org/2000/svg">
<path d="M17.5 8.75V0.575C18.6375 1.0125 19.6875 1.675 20.575 2.5625L24.925 6.925C25.8125 7.8125 26.475 8.8625 26.9125 10H18.7375C18.05 10 17.4875 9.4375 17.4875 8.75H17.5ZM22.5 21.25C22.5 18.4875 20.2625 16.25 17.5 16.25C14.7375 16.25 12.5 18.4875 12.5 21.25C12.5 23.1 13.5 24.7125 15 25.575V29.0875C15 29.8875 15.975 30.2875 16.5375 29.725L17.5 28.7625L18.4625 29.725C19.025 30.2875 20 29.8875 20 29.0875V25.575C21.5 24.7125 22.5 23.1 22.5 21.25ZM27.475 12.5H18.75C16.6875 12.5 15 10.8125 15 8.75V0.025C14.8 0.0125 14.6 0 14.3875 0H8.75C5.3 0 2.5 2.8 2.5 6.25V23.75C2.5 27.2 5.3 30 8.75 30H12.5V26.8375C10.9625 25.4625 10 23.475 10 21.25C10 17.1125 13.3625 13.75 17.5 13.75C21.6375 13.75 25 17.1125 25 21.25C25 23.475 24.0375 25.4625 22.5 26.8375V29.875C25.35 29.3 27.5 26.775 27.5 23.75V13.1125C27.5 12.9125 27.4875 12.7125 27.475 12.5Z" fill="#0A121F"/>
</svg>
