<svg width="24" height="24" viewBox="0 0 24 24" fill="none" xmlns="http://www.w3.org/2000/svg">
<path d="M4.99998 19H11V21H6.99998C6.73476 21 6.48041 21.1054 6.29287 21.2929C6.10533 21.4804 5.99998 21.7348 5.99998 22C5.99998 22.2652 6.10533 22.5196 6.29287 22.7071C6.48041 22.8946 6.73476 23 6.99998 23H17C17.2652 23 17.5195 22.8946 17.7071 22.7071C17.8946 22.5196 18 22.2652 18 22C18 21.7348 17.8946 21.4804 17.7071 21.2929C17.5195 21.1054 17.2652 21 17 21H13V19H19C20.1522 18.9985 21.2687 18.5999 22.1612 17.8713C23.0538 17.1427 23.6679 16.1286 23.9 15H0.0999756C0.332072 16.1286 0.946156 17.1427 1.83872 17.8713C2.73129 18.5999 3.84777 18.9985 4.99998 19Z" fill="black"/>
<path d="M19 1H5C3.67441 1.00159 2.40356 1.52888 1.46622 2.46622C0.528882 3.40356 0.00158786 4.67441 0 6L0 13H24V6C23.9984 4.67441 23.4711 3.40356 22.5338 2.46622C21.5964 1.52888 20.3256 1.00159 19 1Z" fill="black"/>
</svg>
