<svg width="24" height="24" viewBox="0 0 24 24" fill="none" xmlns="http://www.w3.org/2000/svg">
<g clip-path="url(#clip0_280_1248)">
<path d="M16.5 5C19.544 5 20.779 4.189 21 3.921V1.5C21 0.617 19.15 0 16.5 0C13.85 0 12 0.617 12 1.5V3.921C12.221 4.189 13.456 5 16.5 5ZM4.271 13.303L1.597 22.642C0.62 21.729 0 20.439 0 19V6C0 3.794 1.794 2 4 2H6C6.464 2 6.928 2.109 7.342 2.316L10 3.646V9.002C7.372 9.013 5.019 10.774 4.271 13.303ZM23.884 14.277L22.36 20.393C21.709 22.568 19.784 24 17.558 24H5C4.427 24 3.885 23.883 3.372 23.705L6.19 13.862C6.689 12.177 8.266 11 10.024 11H21.435C23.09 10.92 24.408 12.71 23.883 14.276L23.884 14.277ZM12.001 9.001V6.224C13.08 6.69 14.571 7.001 16.501 7.001C18.431 7.001 19.922 6.69 21.001 6.224V9.001H12H12.001Z" fill="black"/>
</g>
<defs>
<clipPath id="clip0_280_1248">
<rect width="24" height="24" fill="white"/>
</clipPath>
</defs>
</svg>
