<svg width="24" height="24" viewBox="0 0 24 24" fill="none" xmlns="http://www.w3.org/2000/svg">
<g clip-path="url(#clip0_280_1317)">
<path d="M22 20C21.262 20 20.624 20.405 20.277 21H19C18.448 21 18 20.552 18 20V18H23C23.553 18 24 17.553 24 17C24 16.447 23.553 16 23 16H20V5C20 2.243 17.757 0 15 0H9C6.243 0 4 2.243 4 5V16H1C0.447 16 0 16.447 0 17C0 17.553 0.447 18 1 18H6V20C6 20.552 5.552 21 5 21H3.723C3.377 20.405 2.739 20 2 20C0.895 20 0 20.895 0 22C0 23.105 0.895 24 2 24C2.738 24 3.376 23.595 3.723 23H5C6.654 23 8 21.654 8 20V18H11V20.277C10.405 20.623 10 21.261 10 22C10 23.105 10.895 24 12 24C13.105 24 14 23.105 14 22C14 21.262 13.595 20.624 13 20.277V18H16V20C16 21.654 17.346 23 19 23H20.277C20.623 23.595 21.261 24 22 24C23.105 24 24 23.105 24 22C24 20.895 23.105 20 22 20ZM10 14H9C8.447 14 8 13.553 8 13C8 12.447 8.447 12 9 12H10C10.553 12 11 12.448 11 13C11 13.552 10.553 14 10 14ZM10 10H9C8.447 10 8 9.552 8 9C8 8.448 8.447 8 9 8H10C10.553 8 11 8.448 11 9C11 9.552 10.553 10 10 10ZM10 6H9C8.447 6 8 5.552 8 5C8 4.448 8.447 4 9 4H10C10.553 4 11 4.448 11 5C11 5.552 10.553 6 10 6ZM15 14H14C13.447 14 13 13.553 13 13C13 12.447 13.447 12 14 12H15C15.553 12 16 12.448 16 13C16 13.552 15.553 14 15 14ZM15 10H14C13.447 10 13 9.552 13 9C13 8.448 13.447 8 14 8H15C15.553 8 16 8.448 16 9C16 9.552 15.553 10 15 10ZM15 6H14C13.447 6 13 5.552 13 5C13 4.448 13.447 4 14 4H15C15.553 4 16 4.448 16 5C16 5.552 15.553 6 15 6Z" fill="black"/>
</g>
<defs>
<clipPath id="clip0_280_1317">
<rect width="24" height="24" fill="white"/>
</clipPath>
</defs>
</svg>
