<svg width="24" height="24" viewBox="0 0 24 24" fill="none" xmlns="http://www.w3.org/2000/svg">
<g clip-path="url(#clip0_280_1254)">
<path d="M4.5 20C8 20 9 19 9 19V21.833C9 23.21 7.359 24 4.5 24C1.641 24 0 23.21 0 21.833V19.073C0 19.073 1 20 4.5 20ZM15 19.074V21.834C15 23.211 16.641 24.001 19.5 24.001C22.359 24.001 24 23.211 24 21.834V19.001C24 19.001 23 20.001 19.5 20.001C16 20.001 15 19.075 15 19.075V19.074ZM19.5 0C16.85 0 15 0.617 15 1.5V3.967C15.178 4.22 16.319 5 19.5 5C22.681 5 23.822 4.22 24 3.967V1.5C24 0.617 22.15 0 19.5 0ZM15 6V8.833C15 10.21 16.641 11 19.5 11C22.359 11 24 10.21 24 8.833V6C24 6 23 7 19.5 7C16 7 15 6 15 6ZM9 6H15V4H9V6ZM19.5 13C17.699 13 16.285 13.289 15.553 13.749L9 8.111V6C9 6 8 7 4.5 7C1 7 0 6 0 6V8.833C0 10.04 1.262 10.795 3.5 10.963V13.032C1.398 13.168 0 13.733 0 14.499V16.966C0.178 17.219 1.319 17.999 4.5 17.999C7.544 17.999 8.779 17.188 9 16.92V14.499C9 13.732 7.602 13.167 5.5 13.032V10.963C6.76 10.868 7.707 10.586 8.297 10.143L15 15.911V16.966C15.178 17.219 16.319 17.999 19.5 17.999C22.544 17.999 23.779 17.188 24 16.92V14.499C24 13.616 22.15 12.999 19.5 12.999V13ZM4.5 5C7.681 5 8.822 4.22 9 3.967V1.5C9 0.617 7.15 0 4.5 0C1.85 0 0 0.617 0 1.5V3.967C0.178 4.22 1.319 5 4.5 5Z" fill="black"/>
</g>
<defs>
<clipPath id="clip0_280_1254">
<rect width="24" height="24" fill="white"/>
</clipPath>
</defs>
</svg>
