<svg width="24" height="24" viewBox="0 0 24 24" fill="none" xmlns="http://www.w3.org/2000/svg">
<g clip-path="url(#clip0_280_1329)">
<path d="M22 14.56V13C22 10.79 20.21 9 18 9C15.79 9 14 10.79 14 13V14.56C12.81 15.25 12 16.53 12 18V20C12 22.21 13.79 24 16 24H20C22.21 24 24 22.21 24 20V18C24 16.53 23.19 15.25 22 14.56ZM18 20.5C17.17 20.5 16.5 19.83 16.5 19C16.5 18.17 17.17 17.5 18 17.5C18.83 17.5 19.5 18.17 19.5 19C19.5 19.83 18.83 20.5 18 20.5ZM20 14H16V13C16 11.9 16.9 11 18 11C19.1 11 20 11.9 20 13V14ZM10.35 22H5C2.24 22 0 19.76 0 17V5C0 2.24 2.24 0 5 0H17C19.76 0 22 2.24 22 5V8.54C21.17 7.8 20.14 7.28 19 7.09V5C19 3.9 18.1 3 17 3H13.33C12.53 3 11.78 3.31 11.21 3.88L7.88 7.21C7.31 7.78 7 8.53 7 9.33V13C7 14.1 7.9 15 9 15H10.81C10.46 15.61 10.21 16.28 10.09 17H5V7.81L7.71 4.71C8 4.42 8.08 3.99 7.93 3.62C7.78 3.25 7.41 3 7.01 3H5.01C3.91 3 3.01 3.9 3.01 5V17C3.01 18.1 3.91 19 5.01 19H10.01V20C10.01 20.7 10.14 21.37 10.36 22H10.35ZM13.33 5H17V7.09C14.17 7.57 12 10.03 12 13H9V9.33C9 9.06 9.1 8.81 9.29 8.62L12.62 5.29C12.81 5.1 13.06 5 13.33 5Z" fill="black"/>
</g>
<defs>
<clipPath id="clip0_280_1329">
<rect width="24" height="24" fill="white"/>
</clipPath>
</defs>
</svg>
