<svg width="30" height="30" viewBox="0 0 30 30" fill="none" xmlns="http://www.w3.org/2000/svg">
<path d="M16.6725 0.641844C16.2134 0.228639 15.6176 0 15 0C14.3824 0 13.7866 0.228639 13.3275 0.641844L0 12.6368V25.6368C0 26.6977 0.421427 27.7151 1.17157 28.4653C1.92172 29.2154 2.93913 29.6368 4 29.6368H8.75V20.8506C8.75 19.193 9.40848 17.6033 10.5806 16.4312C11.7527 15.2591 13.3424 14.6006 15 14.6006C16.6576 14.6006 18.2473 15.2591 19.4194 16.4312C20.5915 17.6033 21.25 19.193 21.25 20.8506V29.6331H26C27.0609 29.6331 28.0783 29.2117 28.8284 28.4615C29.5786 27.7114 30 26.694 30 25.6331V12.6331L16.6725 0.641844Z" fill="black"/>
</svg>
