<svg width="30" height="30" viewBox="0 0 30 30" fill="none" xmlns="http://www.w3.org/2000/svg">
<path d="M22.1926 29.9977C12.6426 29.9977 -0.00742511 17.3352 -0.0074247 7.79773C-0.00742461 5.71023 0.780076 3.76023 2.21758 2.32273L3.65508 1.07273C5.10508 -0.37727 7.55508 -0.37727 9.06758 1.13523C9.10508 1.17273 11.4176 4.18523 11.4176 4.18523C12.8426 5.68523 12.8426 8.04773 11.4176 9.53523L9.95508 11.3602C11.6551 15.3602 14.5051 18.1977 18.6426 20.0227L20.4676 18.5727C21.9551 17.1352 24.3301 17.1352 25.8176 18.5727C25.8176 18.5727 28.8301 20.8852 28.8676 20.9227C30.3801 22.4352 30.3801 24.8852 28.8676 26.3977L27.7301 27.7102C26.2426 29.2102 24.2926 29.9977 22.2051 29.9977L22.1926 29.9977Z" fill="#0A121F"/>
</svg>

