<svg width="30" height="30" viewBox="0 0 30 30" fill="none" xmlns="http://www.w3.org/2000/svg">
<path d="M13.75 0H3.75C2.75544 0 1.80161 0.395088 1.09835 1.09835C0.395088 1.80161 0 2.75544 0 3.75L0 30H17.5V3.75C17.5 2.75544 17.1049 1.80161 16.4017 1.09835C15.6984 0.395088 14.7446 0 13.75 0ZM7.5 23.75H3.75V21.25H7.5V23.75ZM7.5 18.75H3.75V16.25H7.5V18.75ZM7.5 13.75H3.75V11.25H7.5V13.75ZM7.5 8.75H3.75V6.25H7.5V8.75ZM13.75 23.75H10V21.25H13.75V23.75ZM13.75 18.75H10V16.25H13.75V18.75ZM13.75 13.75H10V11.25H13.75V13.75ZM13.75 8.75H10V6.25H13.75V8.75ZM26.25 6.25H20V30H30V10C30 9.00544 29.6049 8.05161 28.9017 7.34835C28.1984 6.64509 27.2446 6.25 26.25 6.25ZM26.25 23.75H23.75V21.25H26.25V23.75ZM26.25 18.75H23.75V16.25H26.25V18.75ZM26.25 13.75H23.75V11.25H26.25V13.75Z" fill="#F9F9F9"/>
</svg>
