<svg width="25" height="30" viewBox="0 0 25 30" fill="none" xmlns="http://www.w3.org/2000/svg">
<path d="M22.43 3.29125L12.5 0L2.57 3.29125C1.82184 3.53927 1.17085 4.01672 0.709502 4.65579C0.248152 5.29486 -0.000103294 6.06305 3.22412e-08 6.85125V14.9888C3.22412e-08 24.3938 11.5 29.5875 11.9925 29.8037L12.435 30L12.895 29.8475C13.39 29.6825 25 25.71 25 14.9888V6.85125C25.0001 6.06305 24.7519 5.29486 24.2905 4.65579C23.8291 4.01672 23.1782 3.53927 22.43 3.29125ZM13.055 17.475C12.8365 17.695 12.5764 17.8694 12.29 17.988C12.0035 18.1067 11.6963 18.1673 11.3863 18.1662H11.345C11.0286 18.1614 10.7165 18.0924 10.4275 17.9635C10.1385 17.8346 9.87872 17.6484 9.66375 17.4163L6.78125 14.4162L8.585 12.6888L11.39 15.6138L17.8663 9.1375L19.6338 10.905L13.055 17.475Z" fill="#0A121F"/>
</svg>
