<svg width="40" height="40" viewBox="0 0 40 40" fill="none" xmlns="http://www.w3.org/2000/svg">
<g clip-path="url(#clip0_975_3601)">
<path d="M19.9998 26.6667C17.3628 26.6667 14.7849 25.8847 12.5922 24.4196C10.3996 22.9545 8.69062 20.8721 7.68145 18.4358C6.67228 15.9994 6.40824 13.3185 6.92271 10.7321C7.43718 8.14572 8.70705 5.76995 10.5718 3.90525C12.4365 2.04055 14.8122 0.770672 17.3986 0.256202C19.9851 -0.258267 22.6659 0.00577708 25.1023 1.01495C27.5386 2.02411 29.621 3.73308 31.0861 5.92574C32.5512 8.11839 33.3332 10.6963 33.3332 13.3333C33.3292 16.8683 31.9232 20.2574 29.4235 22.757C26.9239 25.2567 23.5348 26.6627 19.9998 26.6667ZM19.9998 30C16.3888 29.9984 12.8773 28.8167 9.99984 26.635V35.8333C9.99983 36.6183 10.2215 37.3872 10.6394 38.0516C11.0573 38.7161 11.6543 39.249 12.3618 39.5889C13.0692 39.9289 13.8584 40.0621 14.6382 39.9733C15.4181 39.8844 16.157 39.5771 16.7698 39.0867L19.4798 36.92C19.6275 36.8021 19.8109 36.7379 19.9998 36.7379C20.1888 36.7379 20.3722 36.8021 20.5198 36.92L23.2298 39.0867C23.8427 39.5771 24.5816 39.8844 25.3615 39.9733C26.1413 40.0621 26.9304 39.9289 27.6379 39.5889C28.3454 39.249 28.9424 38.7161 29.3603 38.0516C29.7782 37.3872 29.9999 36.6183 29.9998 35.8333V26.635C27.1223 28.8165 23.6108 29.9981 19.9998 30Z" fill="#F9F9F9"/>
</g>
<defs>
<clipPath id="clip0_975_3601">
<rect width="40" height="40" fill="white"/>
</clipPath>
</defs>
</svg>
