<svg width="30" height="30" viewBox="0 0 30 30" fill="none" xmlns="http://www.w3.org/2000/svg">
<path d="M22.5 0C18.3575 0 15 3.3575 15 7.5C15 11.6425 18.3575 15 22.5 15C26.6425 15 30 11.6425 30 7.5C30 3.3575 26.6425 0 22.5 0ZM23.2737 10.5175C22.8012 10.99 22.1737 11.25 21.5062 11.25H21.5037C20.8362 11.25 20.2087 10.9888 19.7375 10.5163L17.2225 8.00125L18.99 6.23375L21.5062 8.75L26.025 4.23125L27.7925 5.99875L23.2737 10.5175ZM3.75 1.875V6.25H0V1.875C0 0.84 0.84 0 1.875 0C2.91 0 3.75 0.84 3.75 1.875ZM25 21.25H12.5V26.875C12.5 28.7075 10.9238 30.1712 9.0525 29.9837C7.42625 29.8212 6.25 28.3313 6.25 26.6963V1.875C6.25 1.205 6.0975 0.56875 5.8275 0H15.8938C13.8138 1.83375 12.5 4.51625 12.5 7.5C12.5 13.0137 16.9863 17.5 22.5 17.5C23.3625 17.5 24.2013 17.39 25 17.1837V21.25ZM15 23.75H30V25.625C30 28.0375 28.0375 30 25.625 30H14.05C14.65 29.105 15 28.03 15 26.875V23.75Z" fill="#0A121F"/>
</svg>
