<svg width="80" height="80" viewBox="0 0 80 80" fill="none" xmlns="http://www.w3.org/2000/svg">
<g clip-path="url(#clip0_979_3796)">
<path d="M39.9996 23.2583C55.1404 23.2583 70.469 19.2321 70.469 11.5393C70.469 -3.84644 9.53027 -3.84644 9.53027 11.5393C9.53027 19.2321 24.8589 23.2583 39.9996 23.2583Z" fill="#F9F9F9"/>
<path d="M70.3751 55.2965C70.4071 55.2819 70.4369 55.2647 70.469 55.2501V41.3423C52.6781 48.5434 28.5881 49.0854 9.53027 41.3664V55.2026C9.56231 55.2166 9.59215 55.2355 9.62418 55.2494C27.878 63.3766 52.7724 63.004 70.3751 55.2965Z" fill="#F9F9F9"/>
<path d="M39.9996 79.9999C55.1404 79.9999 70.469 75.9738 70.469 68.2809V60.2053C50.963 68.0859 27.2445 67.4427 9.53027 60.2728V68.2809C9.53027 75.9739 24.8589 79.9999 39.9996 79.9999Z" fill="#F9F9F9"/>
<path d="M70.3751 36.2492C70.4068 36.2365 70.4371 36.2196 70.469 36.2071V20.532C63.8401 25.8624 51.2708 27.9459 39.9996 27.9459C28.7285 27.9459 16.1592 25.8624 9.53027 20.532V36.2959C9.56231 36.3099 9.59215 36.3289 9.62418 36.3428C27.4095 44.3071 52.7058 44.2928 70.3751 36.2492Z" fill="#F9F9F9"/>
</g>
<defs>
<clipPath id="clip0_979_3796">
<rect width="80" height="80" fill="white"/>
</clipPath>
</defs>
</svg>
