<svg width="40" height="40" viewBox="0 0 40 40" fill="none" xmlns="http://www.w3.org/2000/svg">
<g clip-path="url(#clip0_975_3610)">
<path d="M20 28.3333C18.6815 28.3333 17.3925 27.9423 16.2962 27.2098C15.1999 26.4773 14.3454 25.4361 13.8408 24.2179C13.3362 22.9997 13.2042 21.6593 13.4614 20.3661C13.7187 19.0729 14.3536 17.885 15.286 16.9526C16.2183 16.0203 17.4062 15.3853 18.6994 15.1281C19.9926 14.8709 21.333 15.0029 22.5512 15.5075C23.7694 16.0121 24.8106 16.8665 25.5431 17.9629C26.2757 19.0592 26.6667 20.3481 26.6667 21.6667C26.6667 23.4348 25.9643 25.1305 24.714 26.3807C23.4638 27.631 21.7681 28.3333 20 28.3333ZM30 35C30 33.6739 29.4732 32.4022 28.5355 31.4645C27.5979 30.5268 26.3261 30 25 30H15C13.6739 30 12.4021 30.5268 11.4645 31.4645C10.5268 32.4022 10 33.6739 10 35V40H30V35ZM30 13.3333C28.6815 13.3333 27.3925 12.9423 26.2962 12.2098C25.1999 11.4773 24.3454 10.4361 23.8408 9.21789C23.3362 7.99972 23.2042 6.65928 23.4614 5.36607C23.7187 4.07286 24.3536 2.88497 25.286 1.95262C26.2183 1.02027 27.4062 0.385336 28.6994 0.128101C29.9926 -0.129134 31.333 0.00288854 32.5512 0.507473C33.7694 1.01206 34.8106 1.86654 35.5431 2.96287C36.2757 4.0592 36.6667 5.34813 36.6667 6.66667C36.6667 8.43478 35.9643 10.1305 34.714 11.3807C33.4638 12.631 31.7681 13.3333 30 13.3333ZM10 13.3333C8.68146 13.3333 7.39253 12.9423 6.2962 12.2098C5.19987 11.4773 4.34539 10.4361 3.8408 9.21789C3.33622 7.99972 3.2042 6.65928 3.46143 5.36607C3.71867 4.07286 4.3536 2.88497 5.28595 1.95262C6.2183 1.02027 7.40619 0.385336 8.6994 0.128101C9.9926 -0.129134 11.333 0.00288854 12.5512 0.507473C13.7694 1.01206 14.8106 1.86654 15.5431 2.96287C16.2757 4.0592 16.6667 5.34813 16.6667 6.66667C16.6667 8.43478 15.9643 10.1305 14.714 11.3807C13.4638 12.631 11.7681 13.3333 10 13.3333ZM10 21.6667C9.99914 19.204 10.9119 16.8285 12.5617 15H5C3.67392 15 2.40215 15.5268 1.46447 16.4645C0.526784 17.4022 0 18.6739 0 20L0 25H10.5817C10.1989 23.9302 10.0022 22.8028 10 21.6667ZM29.4183 25H40V20C40 18.6739 39.4732 17.4022 38.5355 16.4645C37.5979 15.5268 36.3261 15 35 15H27.4383C28.6424 16.3317 29.4624 17.9651 29.8111 19.7262C30.1598 21.4873 30.0241 23.31 29.4183 25Z" fill="#F9F9F9"/>
</g>
<defs>
<clipPath id="clip0_975_3610">
<rect width="40" height="40" fill="white"/>
</clipPath>
</defs>
</svg>
