<svg width="20" height="24" viewBox="0 0 20 24" fill="none" xmlns="http://www.w3.org/2000/svg">
<path d="M11.001 9.964H13.001V11.964H11.001V9.964ZM20 5.477V11.938C19.72 20.001 12.866 22.767 9.958 23.99C7.149 22.534 0.264 19.103 0 11.938V5.477C0 4.185 0.826 3.042 2.054 2.635L10 0L17.945 2.634C19.174 3.041 20 4.185 20 5.477ZM14.5 10.408C14.5 7.957 12.452 5.964 10.001 5.964C7.55 5.964 5.5 7.958 5.5 10.408V13.964H8V15.964H12V13.964H14.5V10.408ZM7.001 11.964H9.001V9.964H7.001V11.964Z" fill="black"/>
</svg>
