<svg width="30" height="30" viewBox="0 0 30 30" fill="none" xmlns="http://www.w3.org/2000/svg">
<path d="M23.75 0H6.25C2.79875 0 0 2.79875 0 6.25V23.75C0 27.2012 2.79875 30 6.25 30H23.75C27.2012 30 30 27.2012 30 23.75V6.25C30 2.79875 27.2012 0 23.75 0ZM15 25C11.2225 25 7.95 22.8787 6.25 19.7787V22.5C6.25 23.19 5.69 23.75 5 23.75C4.31 23.75 3.75 23.19 3.75 22.5V18.75C3.75 17.3687 4.86875 16.25 6.25 16.25H10C10.69 16.25 11.25 16.81 11.25 17.5C11.25 18.19 10.69 18.75 10 18.75H8.53875C9.8375 20.9837 12.235 22.5 15 22.5C18.4025 22.5 21.275 20.2212 22.1887 17.11C22.3412 16.5925 22.8325 16.25 23.3725 16.25C24.1887 16.25 24.8175 17.0275 24.5875 17.8112C23.3713 21.96 19.5362 25 14.9987 25H15ZM26.25 11.25C26.25 12.6313 25.1313 13.75 23.75 13.75H20C19.31 13.75 18.75 13.19 18.75 12.5C18.75 11.81 19.31 11.25 20 11.25H21.4812C20.185 9.01125 17.7687 7.5 15 7.5C11.5975 7.5 8.725 9.77875 7.81125 12.89C7.65875 13.4075 7.1675 13.75 6.6275 13.75C5.81125 13.75 5.1825 12.9725 5.4125 12.1888C6.62875 8.04 10.4638 5 15.0013 5C18.77 5 22.05 7.09875 23.7512 10.1875V7.5C23.7512 6.81 24.3112 6.25 25.0012 6.25C25.6912 6.25 26.2512 6.81 26.2512 7.5L26.25 11.25Z" fill="#0A121F"/>
</svg>
