<svg width="30" height="30" viewBox="0 0 30 30" fill="none" xmlns="http://www.w3.org/2000/svg">
<g clip-path="url(#clip0_947_5109)">
<path d="M28.1064 13.7188L15.0001 21.5838L1.89387 13.7188C1.60959 13.5482 1.2692 13.4976 0.947574 13.578C0.62595 13.6584 0.349439 13.8633 0.178872 14.1475C0.00830415 14.4318 -0.0423479 14.7722 0.0380584 15.0938C0.118465 15.4155 0.323343 15.692 0.607622 15.8625L14.3576 24.1125C14.552 24.2293 14.7746 24.2911 15.0014 24.2911C15.2282 24.2911 15.4507 24.2293 15.6451 24.1125L29.3951 15.8625C29.6794 15.692 29.8843 15.4155 29.9647 15.0938C30.0451 14.7722 29.9944 14.4318 29.8239 14.1475C29.6533 13.8633 29.3768 13.6584 29.0552 13.578C28.7335 13.4976 28.3932 13.5482 28.1089 13.7188H28.1064Z" fill="#0A121F"/>
<path d="M28.1064 19.4287L15.0001 27.2925L1.89387 19.4287C1.75311 19.3443 1.59709 19.2884 1.43472 19.2642C1.27236 19.2401 1.10682 19.2481 0.947571 19.2879C0.788318 19.3277 0.638467 19.3985 0.506573 19.4963C0.374678 19.594 0.263324 19.7167 0.178868 19.8575C0.0944114 19.9983 0.0385069 20.1543 0.0143461 20.3166C-0.00981465 20.479 -0.00175848 20.6445 0.0380546 20.8038C0.118461 21.1254 0.323339 21.4019 0.607618 21.5725L14.3576 29.8225C14.552 29.9393 14.7746 30.001 15.0014 30.001C15.2282 30.001 15.4507 29.9393 15.6451 29.8225L29.3951 21.5725C29.6794 21.4019 29.8843 21.1254 29.9647 20.8038C30.0451 20.4822 29.9944 20.1418 29.8239 19.8575C29.6533 19.5732 29.3768 19.3683 29.0552 19.2879C28.7335 19.2075 28.3931 19.2582 28.1089 19.4287H28.1064Z" fill="black"/>
<path d="M0.606343 10.4462L13.0863 17.9349C13.6642 18.2826 14.3258 18.4662 15.0001 18.4662C15.6744 18.4662 16.336 18.2826 16.9138 17.9349L29.3938 10.4462C29.5787 10.3351 29.7316 10.178 29.8377 9.9903C29.9439 9.80259 29.9997 9.5906 29.9997 9.37495C29.9997 9.15929 29.9439 8.94731 29.8377 8.75959C29.7316 8.57188 29.5787 8.41483 29.3938 8.3037L16.9138 0.814947C16.3359 0.467734 15.6743 0.284302 15.0001 0.284302C14.3258 0.284302 13.6643 0.467734 13.0863 0.814947L0.606343 8.3037C0.421527 8.41483 0.268606 8.57188 0.162444 8.75959C0.0562811 8.94731 0.000488281 9.15929 0.000488281 9.37495C0.000488281 9.5906 0.0562811 9.80259 0.162444 9.9903C0.268606 10.178 0.421527 10.3351 0.606343 10.4462Z" fill="black"/>
</g>
<defs>
<clipPath id="clip0_947_5109">
<rect width="30" height="30" fill="white"/>
</clipPath>
</defs>
</svg>
