<svg width="24" height="24" viewBox="0 0 24 24" fill="none" xmlns="http://www.w3.org/2000/svg">
<g clip-path="url(#clip0_271_916)">
<path d="M8.002 13.332C7.039 12.341 6.443 10.991 6.443 9.50003C6.443 6.46203 8.905 4.00003 11.943 4.00003C14.981 4.00003 17.443 6.46203 17.443 9.50003C17.443 10.021 17.366 10.523 17.231 11H14.877C14.159 10.164 13.108 9.62303 11.917 9.62303C9.82 9.62303 8.124 11.266 8.002 13.332ZM4.554 8.20503C4.828 6.61203 5.607 5.16003 6.815 4.02703C8.344 2.59403 10.346 1.88603 12.445 2.01603C16.398 2.27203 19.489 5.73503 19.443 9.88103C19.424 11.617 17.97 12.999 16.235 12.999H13.829C13.585 12.17 12.827 11.56 11.919 11.56C10.814 11.56 9.919 12.455 9.919 13.56C9.919 14.665 10.814 15.56 11.919 15.56C12.457 15.56 12.944 15.345 13.303 14.999H16.235C19.054 14.999 21.403 12.754 21.443 9.93603C21.517 4.71503 17.595 0.345032 12.574 0.0210318C9.91 -0.151968 7.383 0.753032 5.448 2.56903C3.949 3.97403 2.952 5.83403 2.593 7.83503C2.484 8.44303 2.965 9.00103 3.582 9.00103C4.054 9.00103 4.475 8.67203 4.554 8.20603V8.20503ZM16.666 18.426L14.798 21.073C14.443 21.605 13.662 21.605 13.307 21.073L12.053 19.191L10.799 21.073C10.444 21.605 9.663 21.605 9.308 21.073L7.451 18.287C5.833 19.29 4.578 20.815 3.99 22.702C3.895 23.006 3.95 23.337 4.139 23.593C4.328 23.849 4.627 24 4.945 24H18.945C19.263 24 19.562 23.849 19.751 23.593C19.94 23.337 19.995 23.006 19.9 22.702C19.339 20.903 18.174 19.43 16.666 18.426Z" fill="black"/>
</g>
<defs>
<clipPath id="clip0_271_916">
<rect width="24" height="24" fill="white"/>
</clipPath>
</defs>
</svg>
