<svg width="19" height="24" viewBox="0 0 19 24" fill="none" xmlns="http://www.w3.org/2000/svg">
<path d="M5.42448 13.3319C4.46148 12.3409 3.86548 10.9909 3.86548 9.49991C3.86548 6.46191 6.32748 3.99991 9.36548 3.99991C12.4035 3.99991 14.8655 6.46191 14.8655 9.49991C14.8655 10.0209 14.7885 10.5229 14.6535 10.9999H12.2995C11.5815 10.1639 10.5305 9.62291 9.33948 9.62291C7.24248 9.62291 5.54648 11.2659 5.42448 13.3319ZM1.97648 8.20491C2.25048 6.61191 3.02948 5.15991 4.23748 4.02691C5.76648 2.59391 7.76848 1.88591 9.86748 2.01591C13.8205 2.27191 16.9115 5.73491 16.8655 9.88091C16.8465 11.6169 15.3925 12.9989 13.6575 12.9989H11.2515C11.0075 12.1699 10.2495 11.5599 9.34148 11.5599C8.23648 11.5599 7.34148 12.4549 7.34148 13.5599C7.34148 14.6649 8.23648 15.5599 9.34148 15.5599C9.87948 15.5599 10.3665 15.3449 10.7255 14.9989H13.6575C16.4765 14.9989 18.8255 12.7539 18.8655 9.93591C18.9395 4.71491 15.0175 0.34491 9.99648 0.0209097C7.33248 -0.15209 4.80548 0.75291 2.87048 2.56891C1.37148 3.97391 0.374481 5.83391 0.0154814 7.83491C-0.0935186 8.44291 0.387481 9.00091 1.00448 9.00091C1.47648 9.00091 1.89748 8.67191 1.97648 8.20591V8.20491ZM14.0885 18.4259L12.2205 21.0729C11.8655 21.6049 11.0845 21.6049 10.7295 21.0729L9.47548 19.1909L8.22148 21.0729C7.86648 21.6049 7.08548 21.6049 6.73048 21.0729L4.87348 18.2869C3.25548 19.2899 2.00048 20.8149 1.41248 22.7019C1.31748 23.0059 1.37248 23.3369 1.56148 23.5929C1.75048 23.8489 2.04948 23.9999 2.36748 23.9999H16.3675C16.6855 23.9999 16.9845 23.8489 17.1735 23.5929C17.3625 23.3369 17.4175 23.0059 17.3225 22.7019C16.7615 20.9029 15.5965 19.4299 14.0885 18.4259Z" fill="black"/>
</svg>
