<svg width="30" height="30" viewBox="0 0 30 30" fill="none" xmlns="http://www.w3.org/2000/svg">
<g clip-path="url(#clip0_947_5220)">
<path d="M27.5 1.25H12.5462V5H10V1.25H7.5V5H4.95375V1.25H2.5C1.83696 1.25 1.20107 1.51339 0.732233 1.98223C0.263392 2.45107 0 3.08696 0 3.75L0 6.25C0 6.91304 0.263392 7.54893 0.732233 8.01777C1.20107 8.48661 1.83696 8.75 2.5 8.75H27.5C28.163 8.75 28.7989 8.48661 29.2678 8.01777C29.7366 7.54893 30 6.91304 30 6.25V3.75C30 3.08696 29.7366 2.45107 29.2678 1.98223C28.7989 1.51339 28.163 1.25 27.5 1.25Z" fill="#0A121F"/>
<path d="M27.5 11.25H12.5462V15H10V11.25H7.5V15H4.95375V11.25H2.5C1.83696 11.25 1.20107 11.5134 0.732233 11.9822C0.263392 12.4511 0 13.087 0 13.75L0 16.25C0 16.913 0.263392 17.5489 0.732233 18.0178C1.20107 18.4866 1.83696 18.75 2.5 18.75H27.5C28.163 18.75 28.7989 18.4866 29.2678 18.0178C29.7366 17.5489 30 16.913 30 16.25V13.75C30 13.087 29.7366 12.4511 29.2678 11.9822C28.7989 11.5134 28.163 11.25 27.5 11.25Z" fill="black"/>
<path d="M27.5 21.25H12.5462V25H10V21.25H7.5V25H4.95375V21.25H2.5C1.83696 21.25 1.20107 21.5134 0.732233 21.9822C0.263392 22.4511 0 23.087 0 23.75L0 26.25C0 26.913 0.263392 27.5489 0.732233 28.0178C1.20107 28.4866 1.83696 28.75 2.5 28.75H27.5C28.163 28.75 28.7989 28.4866 29.2678 28.0178C29.7366 27.5489 30 26.913 30 26.25V23.75C30 23.087 29.7366 22.4511 29.2678 21.9822C28.7989 21.5134 28.163 21.25 27.5 21.25Z" fill="black"/>
</g>
<defs>
<clipPath id="clip0_947_5220">
<rect width="30" height="30" fill="white"/>
</clipPath>
</defs>
</svg>
