<svg width="24" height="24" viewBox="0 0 24 24" fill="none" xmlns="http://www.w3.org/2000/svg">
<path d="M16.332 9.504C16.057 9.026 15.446 8.86 14.967 9.137L14.399 9.464C14.008 9.094 13.529 8.822 13 8.663V8C13 7.448 12.553 7 12 7C11.447 7 11 7.448 11 8V8.663C10.471 8.822 9.99298 9.094 9.60098 9.464L9.03298 9.137C8.55398 8.86 7.94198 9.026 7.66798 9.504C7.39198 9.983 7.55698 10.594 8.03498 10.87L8.60198 11.197C8.54098 11.456 8.49998 11.723 8.49998 12.001C8.49998 12.279 8.54098 12.545 8.60198 12.804L8.03398 13.132C7.55498 13.408 7.39098 14.02 7.66798 14.498C7.85398 14.818 8.18898 14.998 8.53498 14.998C8.70498 14.998 8.87698 14.955 9.03398 14.864L9.60098 14.536C9.99198 14.906 10.471 15.178 10.999 15.337V16C10.999 16.553 11.446 17 11.999 17C12.552 17 12.999 16.553 12.999 16V15.337C13.528 15.178 14.006 14.906 14.397 14.536L14.965 14.864C15.122 14.955 15.294 14.998 15.463 14.998C15.809 14.998 16.146 14.818 16.33 14.497C16.606 14.018 16.441 13.407 15.963 13.132L15.396 12.805C15.457 12.546 15.498 12.279 15.498 12.001C15.498 11.723 15.457 11.457 15.396 11.197L15.963 10.87C16.442 10.595 16.607 9.983 16.33 9.504H16.332ZM12 13.5C11.173 13.5 10.5 12.827 10.5 12C10.5 11.173 11.173 10.5 12 10.5C12.827 10.5 13.5 11.173 13.5 12C13.5 12.827 12.827 13.5 12 13.5ZM21 8.986C20.986 8.986 20.974 8.99 20.96 8.99L19.189 6.039C19.688 5.503 20 4.79 20 4C20 2.343 18.657 1 17 1C15.696 1 14.597 1.837 14.184 3H9.81698C9.40398 1.837 8.30498 1 7.00098 1C5.34398 1 4.00098 2.343 4.00098 4C4.00098 4.79 4.31298 5.503 4.81198 6.039L3.04098 8.99C3.02698 8.99 3.01498 8.986 3.00098 8.986C1.34398 8.986 0.000976562 10.329 0.000976562 11.986C0.000976562 13.643 1.34398 14.986 3.00098 14.986C3.00898 14.986 3.01698 14.984 3.02498 14.984L4.81198 17.962C4.31298 18.498 4.00098 19.211 4.00098 20.001C4.00098 21.658 5.34398 23.001 7.00098 23.001C8.30498 23.001 9.40398 22.164 9.81698 21.001H14.184C14.597 22.164 15.696 23.001 17 23.001C18.657 23.001 20 21.658 20 20.001C20 19.211 19.688 18.498 19.189 17.962L20.976 14.984C20.984 14.984 20.992 14.986 21 14.986C22.657 14.986 24 13.643 24 11.986C24 10.329 22.657 8.986 21 8.986ZM17.409 17.041C17.274 17.022 17.14 17 17 17C15.696 17 14.597 17.837 14.184 19H9.81698C9.40398 17.837 8.30498 17 7.00098 17C6.86098 17 6.72698 17.023 6.59198 17.041L4.92798 14.268C5.57898 13.718 6.00098 12.905 6.00098 11.986C6.00098 11.072 5.58398 10.264 4.93898 9.713L6.59198 6.958C6.72698 6.977 6.86098 6.999 7.00098 6.999C8.30498 6.999 9.40398 6.162 9.81698 4.999H14.184C14.597 6.162 15.696 6.999 17 6.999C17.14 6.999 17.274 6.976 17.409 6.958L19.062 9.713C18.417 10.263 18 11.072 18 11.986C18 12.905 18.422 13.717 19.073 14.268L17.409 17.041Z" fill="black"/>
</svg>
