<svg width="24" height="24" viewBox="0 0 24 24" fill="none" xmlns="http://www.w3.org/2000/svg">
<path d="M13 15.006V22.995C12.674 22.998 12.344 23.001 12 23.001C5.616 23.001 2.403 22.409 2.269 22.384C1.964 22.326 1.702 22.13 1.562 21.852C1.504 21.738 1 20.691 1 19.001C1 17.311 1.504 16.264 1.562 16.15C1.702 15.872 1.964 15.676 2.269 15.618C2.403 15.593 5.616 15.001 12 15.001C12.344 15.001 12.674 15.004 13 15.007V15.006ZM22.438 16.15C22.298 15.872 22.036 15.676 21.731 15.618C21.62 15.597 19.389 15.188 15 15.048V22.953C19.389 22.813 21.62 22.404 21.731 22.383C22.036 22.325 22.298 22.129 22.438 21.851C22.496 21.737 23 20.69 23 19C23 17.31 22.496 16.264 22.438 16.15ZM17.174 10.038C16.755 10.752 15.835 10.992 15.121 10.572L14.652 10.297C14.329 10.53 13.942 10.701 13.499 10.817V11.501C13.499 12.329 12.827 13.001 11.999 13.001C11.171 13.001 10.499 12.329 10.499 11.501V10.817C10.056 10.701 9.669 10.531 9.346 10.297L8.877 10.572C8.163 10.991 7.243 10.752 6.824 10.038C6.405 9.32402 6.644 8.40402 7.358 7.98502L8.027 7.59202C8.009 7.40402 7.998 7.20802 7.998 7.00002C7.998 6.79202 8.009 6.59702 8.027 6.40802L7.358 6.01502C6.644 5.59602 6.404 4.67602 6.824 3.96202C7.243 3.24802 8.163 3.00802 8.877 3.42802L9.346 3.70302C9.669 3.47002 10.056 3.29902 10.499 3.18302V2.49902C10.499 1.67102 11.171 0.999023 11.999 0.999023C12.827 0.999023 13.499 1.67102 13.499 2.49902V3.18302C13.942 3.29902 14.329 3.46902 14.652 3.70302L15.121 3.42802C15.835 3.00902 16.755 3.24802 17.174 3.96202C17.593 4.67602 17.354 5.59602 16.64 6.01502L15.971 6.40802C15.989 6.59602 16 6.79202 16 7.00002C16 7.20802 15.989 7.40302 15.971 7.59202L16.64 7.98502C17.354 8.40402 17.594 9.32402 17.174 10.038ZM13.5 7.00102C13.5 5.80902 13.192 5.50102 12 5.50102C10.808 5.50102 10.5 5.80902 10.5 7.00102C10.5 8.19302 10.808 8.50102 12 8.50102C13.192 8.50102 13.5 8.19302 13.5 7.00102Z" fill="black"/>
</svg>
