<svg width="30" height="30" viewBox="0 0 30 30" fill="none" xmlns="http://www.w3.org/2000/svg">
<path d="M0 10V8.75C0 5.30375 2.80375 2.5 6.25 2.5H7.5V1.25C7.5 0.56 8.05875 0 8.75 0C9.44125 0 10 0.56 10 1.25V2.5H20V1.25C20 0.56 20.5588 0 21.25 0C21.9412 0 22.5 0.56 22.5 1.25V2.5H23.75C27.1962 2.5 30 5.30375 30 8.75V10H0ZM30 12.5V23.75C30 27.1962 27.1962 30 23.75 30H6.25C2.80375 30 0 27.1962 0 23.75V12.5H30ZM22.29 16.44C21.81 15.9438 21.02 15.9288 20.5225 16.4075L14.58 22.135C14.11 22.605 13.3213 22.64 12.7813 22.1025L9.93375 19.4562C9.43 18.9875 8.64 19.0137 8.1675 19.5212C7.6975 20.0262 7.72625 20.8175 8.2325 21.2875L11.0475 23.9025C11.755 24.6112 12.6975 25.0012 13.6987 25.0012C14.7 25.0012 15.6438 24.6113 16.3338 23.9188L22.2587 18.2088C22.755 17.73 22.77 16.9363 22.29 16.44Z" fill="#0A121F"/>
</svg>
