<svg width="30" height="30" viewBox="0 0 30 30" fill="none" xmlns="http://www.w3.org/2000/svg">
<path d="M9.375 16.25C8.26248 16.25 7.17494 15.9201 6.24992 15.302C5.32489 14.6839 4.60392 13.8054 4.17818 12.7776C3.75243 11.7498 3.64104 10.6188 3.85808 9.52762C4.07512 8.43648 4.61085 7.4342 5.39752 6.64753C6.18419 5.86086 7.18647 5.32513 8.27762 5.10809C9.36876 4.89104 10.4998 5.00244 11.5276 5.42818C12.5554 5.85392 13.4339 6.57489 14.052 7.49992C14.6701 8.42495 15 9.51248 15 10.625C14.9983 12.1163 14.4052 13.5461 13.3506 14.6007C12.2961 15.6552 10.8663 16.2483 9.375 16.25ZM18.75 25C18.748 23.343 18.0889 21.7545 16.9172 20.5828C15.7456 19.4111 14.157 18.752 12.5 18.75H6.25C4.59301 18.752 3.00445 19.4111 1.83277 20.5828C0.661102 21.7545 0.00198482 23.343 0 25L0 30H18.75V25ZM21.875 11.25C20.7625 11.25 19.6749 10.9201 18.7499 10.302C17.8249 9.68394 17.1039 8.80543 16.6782 7.7776C16.2524 6.74976 16.141 5.61876 16.3581 4.52762C16.5751 3.43648 17.1109 2.4342 17.8975 1.64753C18.6842 0.860857 19.6865 0.325127 20.7776 0.108085C21.8688 -0.108957 22.9998 0.00243723 24.0276 0.42818C25.0554 0.853923 25.9339 1.57489 26.552 2.49992C27.1701 3.42495 27.5 4.51248 27.5 5.625C27.4983 7.11634 26.9052 8.54612 25.8506 9.60065C24.7961 10.6552 23.3663 11.2483 21.875 11.25ZM23.75 13.75H17.5C17.2806 13.7601 17.062 13.7822 16.845 13.8163C16.3905 14.8679 15.7192 15.8118 14.875 16.5863C16.7079 17.1049 18.3218 18.2068 19.4722 19.725C20.6225 21.2433 21.2467 23.0952 21.25 25H30V20C29.998 18.343 29.3389 16.7545 28.1672 15.5828C26.9956 14.4111 25.407 13.752 23.75 13.75Z" fill="#0A121F"/>
</svg>
