<svg width="64" height="64" viewBox="0 0 24 24" fill="none" xmlns="http://www.w3.org/2000/svg">
  <path d="M20.52 3.48A11.88 11.88 0 0 0 12.06 0C5.46 0 0.12 5.34 0.12 11.94c0 2.1 0.54 4.14 1.56 5.94L0 24l6.3-1.62a11.88 11.88 0 0 0 5.76 1.5h0.06c6.6 0 11.94-5.34 11.94-11.94 0-3.18-1.26-6.18-3.54-8.46Z" fill="#25D366"/>
  <path d="M18.12 15.18c-0.24-0.12-1.44-0.72-1.68-0.78-0.24-0.12-0.42-0.12-0.6 0.12-0.18 0.24-0.66 0.78-0.84 0.96-0.18 0.18-0.3 0.18-0.54 0.06-1.5-0.72-2.46-1.26-3.48-2.88-0.24-0.42 0.24-0.42 0.72-1.44 0.06-0.18 0.06-0.36 0-0.48-0.06-0.12-0.6-1.44-0.84-1.98-0.24-0.54-0.42-0.42-0.6-0.42h-0.54c-0.18 0-0.48 0.06-0.72 0.36-0.24 0.24-0.9 0.9-0.9 2.22 0 1.26 0.9 2.52 1.08 2.7 0.12 0.18 1.8 2.76 4.38 3.84 1.62 0.72 2.22 0.78 3 0.66 0.48-0.06 1.44-0.6 1.62-1.2 0.24-0.6 0.24-1.08 0.18-1.2-0.06-0.12-0.24-0.18-0.48-0.3Z" fill="white"/>
</svg>
